<svg width="70" height="71" viewBox="0 0 70 71" fill="none" xmlns="http://www.w3.org/2000/svg">
<g clip-path="url(#clip0_0_79)">
<rect width="70" height="71" rx="8" fill="#191A23"/>
<rect width="70" height="66.2667" rx="4" fill="#343650"/>
<path d="M24.0722 46.36C22.4402 46.36 20.9402 46.048 19.5722 45.424C18.2282 44.8 17.0762 43.924 16.1162 42.796C15.1802 41.668 14.4482 40.3 13.9202 38.692C13.4162 37.084 13.1642 35.308 13.1642 33.364C13.1642 31.42 13.4282 29.656 13.9562 28.072C14.4842 26.464 15.2162 25.096 16.1522 23.968C17.1122 22.84 18.2642 21.964 19.6082 21.34C20.9522 20.716 22.4402 20.404 24.0722 20.404C25.7042 20.404 27.1802 20.716 28.5002 21.34C29.8442 21.964 30.9842 22.84 31.9202 23.968C32.8802 25.096 33.6242 26.464 34.1522 28.072C34.6802 29.656 34.9442 31.42 34.9442 33.364C34.9442 35.308 34.6802 37.084 34.1522 38.692C33.6482 40.3 32.9162 41.668 31.9562 42.796C31.0202 43.924 29.8802 44.8 28.5362 45.424C27.1922 46.048 25.7042 46.36 24.0722 46.36ZM24.0722 41.464C25.7282 41.464 27.0362 40.744 27.9962 39.304C28.9562 37.84 29.4362 35.86 29.4362 33.364C29.4362 30.892 28.9562 28.936 27.9962 27.496C27.0362 26.032 25.7282 25.3 24.0722 25.3C22.4162 25.3 21.0962 26.032 20.1122 27.496C19.1522 28.96 18.6722 30.916 18.6722 33.364C18.6722 35.86 19.1522 37.84 20.1122 39.304C21.0962 40.744 22.4162 41.464 24.0722 41.464ZM46.9108 46.396C45.4708 46.396 44.1388 46.216 42.9148 45.856C41.7148 45.472 40.6828 44.956 39.8188 44.308C38.9548 43.66 38.2828 42.868 37.8028 41.932C37.3228 40.996 37.0828 39.976 37.0828 38.872C37.0828 37.552 37.5268 36.376 38.4148 35.344C39.3028 34.288 40.4428 33.532 41.8348 33.076C40.6348 32.596 39.6628 31.876 38.9188 30.916C38.1748 29.956 37.8028 28.888 37.8028 27.712C37.8028 26.68 38.0308 25.72 38.4868 24.832C38.9428 23.92 39.5788 23.14 40.3948 22.492C41.2108 21.844 42.1708 21.34 43.2748 20.98C44.3788 20.596 45.5788 20.404 46.8748 20.404C48.1708 20.404 49.3828 20.596 50.5108 20.98C51.6388 21.34 52.5988 21.844 53.3908 22.492C54.2068 23.14 54.8428 23.92 55.2988 24.832C55.7788 25.72 56.0188 26.68 56.0188 27.712C56.0188 28.888 55.6468 29.956 54.9028 30.916C54.1588 31.876 53.1988 32.596 52.0228 33.076C53.4148 33.532 54.5428 34.288 55.4068 35.344C56.2948 36.376 56.7388 37.552 56.7388 38.872C56.7388 39.976 56.4988 40.996 56.0188 41.932C55.5388 42.868 54.8668 43.66 54.0028 44.308C53.1388 44.956 52.0948 45.472 50.8708 45.856C49.6708 46.216 48.3508 46.396 46.9108 46.396ZM46.9108 31.204C47.9428 31.204 48.8068 30.916 49.5028 30.34C50.1988 29.74 50.5468 28.996 50.5468 28.108C50.5468 27.22 50.1988 26.488 49.5028 25.912C48.8068 25.312 47.9428 25.012 46.9108 25.012C45.8788 25.012 45.0148 25.312 44.3188 25.912C43.6228 26.488 43.2748 27.22 43.2748 28.108C43.2748 28.996 43.6228 29.74 44.3188 30.34C45.0148 30.916 45.8788 31.204 46.9108 31.204ZM46.9108 41.752C48.1348 41.752 49.1428 41.452 49.9348 40.852C50.7268 40.228 51.1228 39.436 51.1228 38.476C51.1228 37.516 50.7268 36.736 49.9348 36.136C49.1428 35.512 48.1348 35.2 46.9108 35.2C45.6868 35.2 44.6788 35.512 43.8868 36.136C43.0948 36.736 42.6988 37.516 42.6988 38.476C42.6988 39.436 43.0948 40.228 43.8868 40.852C44.6788 41.452 45.6868 41.752 46.9108 41.752Z" fill="#FB5E84"/>
<path opacity="0.150646" d="M0 33H70V4C70 1.79086 68.2091 0 66 0H4C1.79086 0 0 1.79086 0 4V33Z" fill="black"/>
<rect opacity="0.253046" y="32.7633" width="70" height="0.473333" fill="black"/>
<circle cy="33" r="3" fill="#191A23"/>
<circle cx="3" cy="3" r="3" transform="matrix(-1 0 0 1 73 30)" fill="#191A23"/>
</g>
<defs>
<clipPath id="clip0_0_79">
<rect width="70" height="71" fill="white"/>
</clipPath>
</defs>
</svg>
